<?xml version="1.0" encoding="UTF-8"?>
<svg width="750px" height="750px" viewBox="0 0 750 750" version="1.1" xmlns="http://www.w3.org/2000/svg" xmlns:xlink="http://www.w3.org/1999/xlink">
    <!-- Generator: Sketch 53 (72520) - https://sketchapp.com -->
    <title>Artboard</title>
    <desc>Created with Sketch.</desc>
    <g id="Artboard" stroke="none" stroke-width="1" fill="none" fill-rule="evenodd">
        <g id="noun_message_2349061" transform="translate(111.000000, 125.000000)" fill="#000000" fill-rule="nonzero">
            <path d="M96.091257,0 C43.0235158,0 0,43.2674106 0,96.1528061 L0,288.449404 C0,341.3348 43.0235158,384.60221 96.091257,384.60221 L99.8477072,384.60221 L99.8477072,500 L241.72802,384.60221 L432.406152,384.60221 C485.473893,384.60221 528.497409,341.3348 528.497409,288.449404 L528.497409,96.1528061 C528.497409,43.2674106 485.473893,0 432.406152,0 L96.091257,0 Z M121.620705,144.224702 C148.15908,144.224702 169.661829,165.858407 169.661829,192.296598 C169.661829,218.734789 148.150071,240.368494 121.620705,240.368494 C95.0823303,240.368494 73.5795807,218.734789 73.5795807,192.296598 C73.5795807,165.858407 95.0913386,144.224702 121.620705,144.224702 Z M265.753086,144.224702 C292.300469,144.224702 313.794211,165.858407 313.794211,192.296598 C313.794211,218.734789 292.291461,240.368494 265.753086,240.368494 C239.205703,240.368494 217.711962,218.734789 217.711962,192.296598 C217.711962,165.858407 239.214712,144.224702 265.753086,144.224702 Z M409.885468,144.224702 C436.432851,144.224702 457.926592,165.858407 457.926592,192.296598 C457.926592,218.734789 436.423842,240.368494 409.885468,240.368494 C383.338085,240.368494 361.844343,218.734789 361.844343,192.296598 C361.844343,165.858407 383.347093,144.224702 409.885468,144.224702 Z" id="Shape"></path>
        </g>
    </g>
</svg>