<?xml version="1.0" encoding="UTF-8"?>
<svg width="750px" height="750px" viewBox="0 0 750 750" version="1.1" xmlns="http://www.w3.org/2000/svg" xmlns:xlink="http://www.w3.org/1999/xlink">
    <!-- Generator: Sketch 53 (72520) - https://sketchapp.com -->
    <title>Artboard</title>
    <desc>Created with Sketch.</desc>
    <g id="Artboard" stroke="none" stroke-width="1" fill="none" fill-rule="evenodd">
        <g id="noun_avatar_2348512" transform="translate(125.000000, 125.000000)" fill="#000000">
            <path d="M249.893455,0 C387.899543,0 499.78691,111.879756 499.78691,249.893455 C499.78691,387.907154 387.899543,499.78691 249.893455,499.78691 C111.879756,499.78691 0,387.907154 0,249.893455 C0,111.879756 111.879756,0 249.893455,0 Z M249.893455,232.366819 C332.016743,232.366819 398.599696,313.135464 398.599696,359.718417 C398.599696,406.29376 332.016743,444.056317 249.893455,444.056317 C167.762557,444.056317 101.187215,406.29376 101.187215,359.718417 C101.187215,313.135464 167.762557,232.366819 249.893455,232.366819 Z M249.893455,55.7305936 C293.607306,55.7305936 329.041096,91.1643836 329.041096,134.878234 C329.041096,178.592085 293.607306,214.025875 249.893455,214.025875 C206.179604,214.025875 170.745814,178.592085 170.745814,134.878234 C170.745814,91.1643836 206.179604,55.7305936 249.893455,55.7305936 Z" id="Shape"></path>
        </g>
    </g>
</svg>